Coordinates
version=1
nRows=14
nColumns=63
inDegrees=yes

Units are S.I. units (second, meters, Newtons, ...)
If the header above contains a line with 'inDegrees', this indicates whether rotational values are in degrees (yes) or radians (no).

endheader
time	pelvis_tilt	pelvis_list	pelvis_rotation	pelvis_tx	pelvis_ty	pelvis_tz	hip_flexion_r	hip_adduction_r	hip_rotation_r	knee_angle_r	knee_angle_r_beta	ankle_angle_r	subtalar_angle_r	mtp_angle_r	hip_flexion_l	hip_adduction_l	hip_rotation_l	knee_angle_l	knee_angle_l_beta	ankle_angle_l	subtalar_angle_l	mtp_angle_l	L5_S1_Flex_Ext	L5_S1_Lat_Bending	L5_S1_axial_rotation	L4_L5_Flex_Ext	L4_L5_Lat_Bending	L4_L5_axial_rotation	L3_L4_Flex_Ext	L3_L4_Lat_Bending	L3_L4_axial_rotation	L2_L3_Flex_Ext	L2_L3_Lat_Bending	L2_L3_axial_rotation	L1_L2_Flex_Ext	L1_L2_Lat_Bending	L1_L2_axial_rotation	L1_T12_Flex_Ext	L1_T12_Lat_Bending	L1_T12_axial_rotation	Abs_r3	Abs_r2	Abs_r1	Abs_t1	Abs_t2	neck_flexion	neck_bending	neck_rotation	arm_flex_r	arm_add_r	arm_rot_r	elbow_flex_r	pro_sup_r	wrist_flex_r	wrist_dev_r	arm_flex_l	arm_add_l	arm_rot_l	elbow_flex_l	pro_sup_l	wrist_flex_l	wrist_dev_l
7.728814	-7.264022	-6.807992	95.486189	0.238985	0.751440	0.708215	4.732566	-9.888740	-14.049400	8.366005	0.146014	21.723789	14.747136	0.000000	4.667440	6.817839	-4.504020	5.575982	0.097319	17.360549	4.958681	0.000000	0.079912	-0.955690	0.446543	0.148405	-1.271068	0.474452	0.131288	-2.323665	0.474452	0.091332	-2.323665	0.390725	0.074207	-1.948844	0.362816	0.045662	-1.480364	0.334907	0.570807	-10.810960	2.483539	0.000000	0.000000	24.759119	6.566186	-0.851618	4.076947	-13.743760	-12.374959	92.601086	85.172984	-10.231166	14.187430	1.957000	-23.838443	-12.214965	86.363997	87.848245	-10.610673	11.227776
7.745763	-7.297781	-6.859440	95.245794	0.239059	0.750997	0.708508	4.961713	-9.977481	-13.936929	8.667207	0.151271	21.714156	14.713192	0.000000	4.724297	6.871565	-4.260247	5.478990	0.095626	17.411214	4.684196	0.000000	0.074544	-0.950112	0.508261	0.138436	-1.263649	0.540027	0.122469	-2.310102	0.540027	0.085197	-2.310102	0.444728	0.069222	-1.937468	0.412962	0.042595	-1.471723	0.381196	0.532463	-10.747855	2.826796	0.000000	0.000000	24.963711	6.229241	-0.661334	2.896211	-14.099169	-11.437233	88.343207	86.642574	-10.483035	13.803890	1.642929	-24.117574	-9.100577	81.561655	88.852372	-10.777815	13.200907
7.762712	-7.308626	-6.882888	95.123858	0.238934	0.750500	0.708745	5.117910	-10.047535	-13.939284	8.949007	0.156190	21.708106	14.664748	0.000000	4.754358	6.912459	-3.830999	5.400469	0.094256	17.414624	4.279259	0.000000	0.065305	-0.941051	0.555765	0.121277	-1.251597	0.590500	0.107289	-2.288070	0.590500	0.074637	-2.288070	0.486294	0.060642	-1.918990	0.451559	0.037315	-1.457687	0.416823	0.466465	-10.645352	3.090996	0.000000	0.000000	25.159169	5.891585	-0.470468	1.913968	-14.436886	-10.272214	83.719375	87.667173	-10.744326	13.423471	1.596339	-24.362410	-5.189158	76.558165	89.425902	-10.797694	14.704729
7.779661	-7.288166	-6.868010	95.138420	0.238568	0.749946	0.708941	5.186683	-10.090202	-14.069429	9.201060	0.160589	21.718101	14.619326	0.000000	4.755182	6.928331	-3.275290	5.358971	0.093532	17.388083	3.836691	0.000000	0.050411	-0.926100	0.572721	0.093619	-1.231713	0.608516	0.082821	-2.251719	0.608516	0.057615	-2.251719	0.501131	0.046812	-1.888503	0.465336	0.028805	-1.434529	0.429541	0.360084	-10.476227	3.185301	0.000000	0.000000	25.367576	5.565831	-0.162995	1.150292	-14.700563	-8.805143	78.792215	88.458408	-11.021322	12.963480	1.705948	-24.524511	-0.683649	71.518349	89.777629	-10.760187	15.632864
7.796610	-7.245090	-6.831883	95.291034	0.237950	0.749307	0.709037	5.177943	-10.116288	-14.320824	9.412275	0.164275	21.769545	14.584159	0.000000	4.739821	6.932410	-2.590746	5.361932	0.093583	17.353044	3.347035	0.000000	0.033667	-0.907675	0.568748	0.062523	-1.207208	0.604295	0.055312	-2.206921	0.604295	0.038478	-2.206921	0.497655	0.031263	-1.850931	0.462108	0.019237	-1.405989	0.426561	0.240482	-10.267803	3.163208	0.000000	0.000000	25.535382	5.319816	0.199911	0.517128	-14.883359	-7.037222	73.670185	88.888193	-11.218684	12.271185	1.957384	-24.578052	4.353550	66.562702	89.788020	-10.648653	16.013955
7.813559	-7.162002	-6.753562	95.608447	0.237000	0.748625	0.709051	5.060515	-10.106292	-14.727677	9.563337	0.166912	21.857083	14.580070	0.000000	4.693125	6.912015	-1.723923	5.419999	0.094597	17.297761	2.739396	0.000000	0.010810	-0.881600	0.526366	0.020075	-1.172528	0.559263	0.017759	-2.143522	0.559263	0.012354	-2.143522	0.460570	0.010038	-1.797758	0.427672	0.006177	-1.365598	0.394774	0.077212	-9.972833	2.927488	0.000000	0.000000	25.699995	5.122511	0.692320	0.072127	-14.964384	-4.754850	68.445768	88.951142	-11.484011	11.432901	2.231363	-24.481359	9.620712	61.832505	89.420890	-10.448482	15.715689
7.830508	-7.051298	-6.655591	95.973124	0.235838	0.747877	0.708914	4.884986	-10.070614	-15.157097	9.658623	0.168575	21.996303	14.595846	0.000000	4.617917	6.878084	-0.800548	5.500452	0.096001	17.234719	2.021625	0.000000	-0.010861	-0.850023	0.468327	-0.020170	-1.130531	0.497597	-0.017844	-2.066746	0.497597	-0.012413	-2.066746	0.409786	-0.010086	-1.733367	0.380516	-0.006206	-1.316686	0.351245	-0.077580	-9.615632	2.604694	0.000000	0.000000	25.775383	4.940526	1.252886	-0.224133	-14.975737	-1.879835	63.164401	88.863026	-11.700088	10.159535	2.447917	-24.240405	14.858606	57.445635	89.130117	-10.304947	14.854517
7.847458	-6.898313	-6.535648	96.442052	0.234441	0.747133	0.708760	4.648571	-9.995009	-15.651398	9.707071	0.169420	22.156168	14.626278	0.000000	4.538006	6.809991	0.125537	5.631268	0.098284	17.183294	1.346278	0.000000	-0.035884	-0.810335	0.384171	-0.066640	-1.077746	0.408182	-0.058954	-1.970250	0.408182	-0.041012	-1.970250	0.336150	-0.033322	-1.652436	0.312139	-0.020504	-1.255210	0.288129	-0.256315	-9.166677	2.136646	0.000000	0.000000	25.831212	4.787717	1.987385	-0.371981	-14.893631	1.516841	57.994271	88.699408	-12.005101	8.702648	2.625126	-23.859935	19.973703	53.458740	88.789670	-10.163182	13.442006
7.864407	-6.725028	-6.408162	96.926418	0.232927	0.746411	0.708543	4.378916	-9.897764	-16.156328	9.705225	0.169388	22.323366	14.704615	0.000000	4.453413	6.726342	1.011391	5.787496	0.101011	17.144396	0.680770	0.000000	-0.060510	-0.767043	0.288869	-0.112374	-1.020168	0.306923	-0.099413	-1.864989	0.306923	-0.069157	-1.864989	0.252760	-0.056190	-1.564155	0.234706	-0.034576	-1.188150	0.216651	-0.432220	-8.676948	1.606601	0.000000	0.000000	25.835321	4.638610	2.753724	-0.390554	-14.766162	5.414168	53.066715	88.532256	-12.362833	7.111750	2.670937	-23.368625	24.690834	49.948838	88.382891	-10.042628	11.556897
7.881356	-6.538962	-6.295254	97.399075	0.231358	0.745733	0.708291	4.111028	-9.786784	-16.650786	9.663702	0.168663	22.488378	14.828775	0.000000	4.384038	6.634673	1.831319	5.953084	0.103901	17.120999	0.029735	0.000000	-0.082007	-0.722145	0.187990	-0.152294	-0.960453	0.199739	-0.134728	-1.755823	0.199739	-0.093725	-1.755823	0.164491	-0.076151	-1.472598	0.152742	-0.046859	-1.118602	0.140992	-0.585764	-8.169046	1.045542	0.000000	0.000000	25.780814	4.485814	3.528608	-0.312228	-14.619392	9.668017	48.521865	88.365517	-12.782201	5.466922	2.531495	-22.789118	28.805287	46.997444	87.966434	-9.968914	9.414553
7.898305	-6.358879	-6.202001	97.810392	0.229861	0.745136	0.708022	3.865478	-9.674563	-17.071640	9.587906	0.167341	22.639115	14.971282	0.000000	4.327353	6.546606	2.555862	6.104959	0.106552	17.108755	-0.603077	0.000000	-0.101007	-0.679386	0.092322	-0.187579	-0.903584	0.098092	-0.165944	-1.651860	0.098092	-0.115440	-1.651860	0.080781	-0.093795	-1.385405	0.075011	-0.057715	-1.052370	0.069241	-0.721480	-7.685355	0.513466	0.000000	0.000000	25.681581	4.336277	4.239805	-0.197525	-14.458000	14.013492	44.506992	88.236902	-13.182720	3.872088	2.190785	-22.169420	32.161898	44.686040	87.571446	-9.892075	7.384592
7.915254	-6.194205	-6.140199	98.143741	0.228505	0.744634	0.707758	3.664476	-9.569198	-17.396834	9.487736	0.165592	22.771114	15.116440	0.000000	4.291607	6.472002	3.239794	6.229147	0.108719	17.086234	-1.303000	0.000000	-0.116308	-0.641029	0.007233	-0.215996	-0.852568	0.007686	-0.191082	-1.558597	0.007686	-0.132928	-1.558597	0.006329	-0.108004	-1.307186	0.005877	-0.066458	-0.992953	0.005425	-0.830777	-7.251444	0.040230	0.000000	0.000000	25.536745	4.182108	4.840794	-0.111605	-14.285160	18.197259	41.134635	88.065868	-13.504508	2.409941	1.641896	-21.541768	34.651967	43.042113	87.212112	-9.759513	5.675718
7.932203	-6.056369	-6.112137	98.375537	0.227371	0.744248	0.707537	3.526039	-9.480962	-17.623481	9.380622	0.163723	22.881735	15.267052	0.000000	4.286778	6.409851	3.720500	6.333511	0.110541	17.096694	-1.849664	0.000000	-0.128019	-0.608922	-0.060318	-0.237745	-0.809866	-0.064088	-0.210323	-1.480532	-0.064088	-0.146313	-1.480532	-0.052778	-0.118879	-1.241713	-0.049008	-0.073150	-0.943220	-0.045239	-0.914430	-6.888244	-0.335471	0.000000	0.000000	25.335503	4.014238	5.321947	-0.099176	-14.090559	21.988982	38.466296	87.819622	-13.689603	1.156307	0.907490	-20.937413	36.226356	42.016033	86.897624	-9.552003	4.333990
7.949153	-5.949569	-6.116504	98.479626	0.226521	0.743978	0.707371	3.459570	-9.408412	-17.690022	9.271948	0.161826	22.961738	15.374504	0.000000	4.307024	6.365803	4.083799	6.405581	0.111798	17.103513	-2.386682	0.000000	-0.136114	-0.584059	-0.099553	-0.252776	-0.776799	-0.105775	-0.223621	-1.420082	-0.105775	-0.155564	-1.420082	-0.087109	-0.126395	-1.191014	-0.080887	-0.077775	-0.904708	-0.074665	-0.972245	-6.606997	-0.553684	0.000000	0.000000	25.076501	3.815727	5.616731	-0.193936	-13.874356	25.226472	36.510740	87.514577	-13.754297	0.111281	0.068738	-20.392918	36.999285	41.493472	86.622607	-9.318213	3.312223
